# AST/ASF file generated using VICON BodyLanguage
# -----------------------------------------------
:version 1.10
:name VICON
:units
  mass 1.0
  length 0.45
  angle deg
:documentation
   .ast/.asf automatically generated from VICON data using
   VICON BodyBuilder and BodyLanguage model FoxedUp or BRILLIANT.MOD
:root
   order TX TY TZ RX RY RZ
   axis XYZ
   position 0 0 0  
   orientation 0 0 0 
:bonedata
  begin
     id 1 
     name lhipjoint
     direction 0.693937 -0.600361 0.397515 
     length 2.37164 
     axis 0 0 0  XYZ
  end
  begin
     id 2 
     name lfemur
     direction 0.34202 -0.939693 0  
     length 6.18497  
     axis 0 0 20  XYZ
    dof rx ry rz
    limits (-160.0 20.0)
           (-70.0 70.0)
           (-60.0 70.0)
  end
  begin
     id 3 
     name ltibia
     direction 0.34202 -0.939693 0   
     length 6.91601   
     axis 0 0 20   XYZ
    dof rx
    limits (-10.0 170.0)
  end
  begin
     id 4 
     name lfoot
     direction 0.0978718 -0.2689 0.958182   
     length 1.81453   
     axis -90 7.62852e-016 20   XYZ
    dof rx rz
    limits (-45.0 90.0)
           (-70.0 20.0)
  end
  begin
     id 5 
     name ltoes
     direction 1.53569e-011 -4.21951e-011 1   
     length 0.912052   
     axis -90 7.62852e-016 20   XYZ
    dof rx
    limits (-90.0 20.0)
  end
  begin
     id 6 
     name rhipjoint
     direction -0.643996 -0.637876 0.422354   
     length 2.23216  
     axis 0 0 0  XYZ 
  end
  begin
     id 7 
     name rfemur
     direction -0.34202 -0.939693 0   
     length 6.15404   
     axis 0 0 -20   XYZ
    dof rx ry rz
    limits (-160.0 20.0)
           (-70.0 70.0)
           (-70.0 60.0)
  end
  begin
     id 8 
     name rtibia
     direction -0.34202 -0.939693 0   
     length 6.86744   
     axis 0 0 -20   XYZ
    dof rx
    limits (-10.0 170.0)
 end
 begin
     id 9 
     name rfoot
     direction -0.118701 -0.326127 0.937844   
     length 1.9243  
     axis -90 -7.62852e-016 -20   XYZ
    dof rx rz
    limits (-45.0 90.0)
           (-20.0 70.0)
  end
  begin
     id 10 
     name rtoes
     direction -1.5356e-011 -4.2181e-011 1   
     length 0.958865   
     axis -90 -7.62852e-016 -20   XYZ
    dof rx
    limits (-90.0 20.0)
  end
  begin
     id 11 
     name lowerback
     direction 0.0310826 0.968686 -0.246334   
     length 2.00021   
     axis 0 0 0   XYZ
    dof rx ry rz
    limits (-20.0 45.0)
           (-30.0 30.0)
           (-30.0 30.0)
  end
  begin
     id 12 
     name upperback
     direction -0.0152834 0.999474 -0.0286152   
     length 2.03728   
     axis 0 0 0   XYZ
    dof rx ry rz
    limits (-20.0 45.0)
           (-30.0 30.0)
           (-30.0 30.0)
  end
  begin
     id 13 
     name thorax
     direction -0.0323701 0.996236 0.0804149   
     length 2.16   
     axis 0 0 0   XYZ
    dof rx ry rz
    limits (-20.0 45.0)
           (-30.0 30.0)
           (-30.0 30.0)
  end
  begin
     id 14 
     name lowerneck
     direction 0.0307935 0.982251 0.185027   
     length 1.43558   
     axis 0 0 0   XYZ
    dof rx ry rz
    limits (-20.0 45.0)
           (-30.0 30.0)
           (-30.0 30.0)
  end
  begin
     id 15 
     name upperneck
     direction -0.0927153 0.994775 0.0427454   
     length 1.44603   
     axis 0 0 0   XYZ
    dof rx ry rz
    limits (-20.0 45.0)
           (-30.0 30.0)
           (-30.0 30.0)
  end
  begin
     id 16
     name head
     direction -0.0341265 0.999406 -0.00472033  
     length 1.45931  
     axis 0 0 0   XYZ
    dof rx ry rz
    limits (-20.0 45.0)
           (-30.0 30.0)
           (-30.0 30.0)
  end
  begin
     id 17 
     name lclavicle
     direction 0.820755 0.555306 -0.134151  
     length 2.66075  
     axis 0 0 0   XYZ
    dof ry rz
    limits (-20.0 10.0)
           (0.0 20.0)
  end
  begin
     id 18 
     name lhumerus
     direction 1 -4.48971e-011 5.24853e-027   
     length 5.0546   
     axis -180 -30 -90   XYZ
    dof rx ry rz
    limits (-60.0 90.0)
           (-90.0 90.0)
           (-90.0 90.0)
  end
  begin
     id 19
     name lradius
     direction 1 -4.48971e-011 2.76575e-028   
     length 3.39013   
     axis -180 -30 -90   XYZ
    dof rx
    limits (-10.0 170.0)
  end
  begin
     id 20
     name lwrist
     direction 1 -4.48939e-011 -2.27826e-027   
     length 1.69507   
     axis 2.17013e-015 90 90   XYZ
    dof ry
    limits (-180.0 0.0)
 end
  begin
     id 21 
     name lhand
     direction 1 -4.49009e-011 -4.55652e-027   
     length 0.572425   
     axis 2.90745e-015 90 90   XYZ
    dof rx rz
    limits (-90.0 90.0)
           (-45.0 45.0)
  end
  begin
     id 22 
     name lfingers
     direction 1 -4.48955e-011 -9.11303e-027   
     length 0.461504   
     axis 5.81489e-015 90 90   XYZ
    dof rx
    limits (0.0 90.0)
  end
  begin
     id 23
     name lthumb
     direction 0.707107 -6.34929e-011 0.707107   
     length 0.66263   
     axis -90 45 2.85299e-015   XYZ
    dof rx rz
    limits (-45.0 45.0)
           (-45.0 45.0)
  end
  begin
     id 24 
     name rclavicle
     direction -0.754477 0.632921 -0.173712   
     length 2.73081  
     axis 0 0 0   XYZ 
    dof ry rz
    limits (-10.0 20.0)
           (-20.0 0.0)
  end
  begin
     id 25 
     name rhumerus
     direction -1 -4.48969e-011 5.1496e-027  
     length 5.0701   
     axis -180 30 90   XYZ
    dof rx ry rz
    limits (-90.0 60.0)
           (-90.0 90.0)
           (-90.0 90.0)
  end
  begin
     id 26 
     name rradius
     direction -1 -4.48967e-011 -7.15624e-028   
     length 3.14957   
     axis -180 30 90   XYZ
    dof rx
    limits (-10.0 170.0)
  end
  begin
     id 27 
     name rwrist
     direction -1 -4.48938e-011 -2.27826e-027   
     length 1.57479   
     axis 2.17013e-015 -90 -90   XYZ
    dof ry
    limits (-180.0 0.0)
  end
  begin
     id 28
     name rhand
     direction -1 -4.49008e-011 -4.55652e-027   
     length 0.718191   
     axis 2.90745e-015 -90 -90   XYZ
    dof rx rz
    limits (-90.0 90.0)
           (-45.0 45.0)
  end
  begin
     id 29
     name rfingers
     direction -1 -4.48953e-011 -9.11303e-027   
     length 0.579024   
     axis 5.81489e-015 -90 -90   XYZ
    dof rx
    limits (0.0 90.0)
  end
  begin
     id 30
     name rthumb
     direction -0.707107 -6.34937e-011 0.707107   
     length 0.831366   
     axis -90 -45 -2.85299e-015   XYZ
    dof rx rz
    limits (-45.0 45.0)
           (-45.0 45.0)
  end
:hierarchy
  begin
    root lhipjoint rhipjoint lowerback
    lhipjoint lfemur
    lfemur ltibia
    ltibia lfoot
    lfoot ltoes
    rhipjoint rfemur
    rfemur rtibia
    rtibia rfoot
    rfoot rtoes
    lowerback upperback
    upperback thorax
    thorax lowerneck lclavicle rclavicle
    lowerneck upperneck
    upperneck head
    lclavicle lhumerus
    lhumerus lradius
    lradius lwrist
    lwrist lhand lthumb
    lhand lfingers
    rclavicle rhumerus
    rhumerus rradius
    rradius rwrist
    rwrist rhand rthumb
    rhand rfingers
  end

#!OML:ASF H:\Male1\Project 1\Capture day 1\Session 1\Male1.ASF
:FULLY-SPECIFIED
:DEGREES
34
root 22.2621 15.3414 1.23582 156.472 -82.8368 -158.309
lowerback 7.67333 1.64246 -3.33509
upperback 1.76952 1.85424 -0.452891
thorax -2.56144 0.91907 1.22382
lowerneck -11.4119 -5.43716 0.290787
upperneck 16.1251 -8.01223 2.12098
head 6.88241 -3.71413 -0.114973
rclavicle -2.98177e-016 -3.02153e-014
rhumerus -33.4769 12.0465 -94.7565
rradius 34.3356
rwrist -17.5741
rhand -15.3904 0.806664
rfingers 7.12502
rthumb 10.7882 -28.8963
lclavicle -2.98177e-016 -3.02153e-014
lhumerus -27.0567 -7.8652 90.393
lradius 27.1314
lwrist -1.79905
lhand -23.1967 14.5792
lfingers 7.12502
lthumb 3.25312 44.5341
rfemur -8.77559 15.6338 24.1847
rtibia 27.9204
rfoot -36.0825 -32.7418
rtoes -4.6562
lfemur -6.18444 -17.5231 -24.6398
ltibia 29.8419
lfoot -32.9832 28.6681
ltoes 14.3421
35
root 22.2541 15.339 1.23799 156.384 -82.5885 -158.365
lowerback 7.6923 1.74877 -3.18795
upperback 1.80612 2.00639 -0.446805
thorax -2.53652 0.99278 1.13246
lowerneck -11.613 -5.11548 0.657595
upperneck 16.384 -7.59768 1.79905
head 6.96944 -3.51413 -0.247287
rclavicle -1.44119e-014 -1.51076e-014
rhumerus -33.4801 12.2304 -94.8903
rradius 34.3162
rwrist -17.8269
rhand -15.5652 1.15294
rfingers 7.12502
rthumb 10.6196 -28.5587
lclavicle -1.44119e-014 -1.51076e-014
lhumerus -26.9618 -7.87768 90.329
lradius 27.088
lwrist -2.08474
lhand -23.3727 14.0561
lfingers 7.12502
lthumb 3.08317 44.0135
rfemur -8.59565 15.6257 24.3134
rtibia 27.8911
rfoot -35.7364 -32.7373
rtoes -5.36118
lfemur -5.98834 -17.6188 -24.6204
ltibia 29.8735
lfoot -33.5913 28.57
ltoes 16.1369
36
root 22.2548 15.3373 1.23766 156.281 -82.597 -158.279
lowerback 7.70639 1.75305 -3.16151
upperback 1.81118 2.01388 -0.438398
thorax -2.53886 0.99631 1.12526
lowerneck -11.9069 -4.68683 1.19409
upperneck 16.6219 -7.02769 1.26524
head 7.05422 -3.24648 -0.461731
rclavicle 3.10104e-014 -5.56597e-015
rhumerus -33.469 12.3103 -94.9259
rradius 34.3877
rwrist -17.6925
rhand -15.8 0.924142
rfingers 7.12502
rthumb 10.3931 -28.799
lclavicle 3.10104e-014 -5.56597e-015
lhumerus -26.8487 -7.94925 90.2774
lradius 27.0779
lwrist -2.11076
lhand -23.5852 13.7563
lfingers 7.12502
lthumb 2.87799 43.7166
rfemur -8.57073 15.5961 24.3262
rtibia 27.8577
rfoot -35.6306 -32.849
rtoes -5.7478
lfemur -5.94064 -17.5676 -24.646
ltibia 29.875
lfoot -33.4403 28.6272
ltoes 15.1831
37
root 22.2554 15.3387 1.23837 156.911 -82.7579 -158.906
lowerback 7.70605 1.74188 -3.22986
upperback 1.8147 1.99163 -0.488263
thorax -2.53458 0.985172 1.11442
lowerneck -12.1837 -4.19781 1.86234
upperneck 16.7615 -6.38499 0.670437
head 7.10463 -2.94344 -0.708024
rclavicle -8.34896e-015 3.26007e-014
rhumerus -33.5274 12.3286 -94.9327
rradius 34.6246
rwrist -17.5503
rhand -15.9726 0.305824
rfingers 7.12502
rthumb 10.2266 -29.4256
lclavicle -8.34896e-015 3.26007e-014
lhumerus -26.7233 -8.12648 90.2269
lradius 27.0151
lwrist -2.14465
lhand -23.6885 13.9703
lfingers 7.12502
lthumb 2.77822 43.932
rfemur -8.57779 15.5084 24.1668
rtibia 27.8768
rfoot -35.6915 -32.8441
rtoes -5.76071
lfemur -5.89894 -17.6554 -24.8377
ltibia 29.8435
lfoot -33.323 28.7664
ltoes 14.8342
38
root 22.2567 15.3466 1.23904 157.422 -83.0217 -159.313
lowerback 7.66803 1.70169 -3.31511
upperback 1.7774 1.93142 -0.540653
thorax -2.55031 0.956521 1.11458
lowerneck -12.2155 -3.61453 2.33448
upperneck 16.7523 -5.61848 0.35221
head 7.08883 -2.57394 -0.814465
rclavicle 9.44227e-015 -1.59028e-014
rhumerus -33.571 12.3869 -94.9394
rradius 34.7989
rwrist -17.7163
rhand -15.7397 0.482759
rfingers 7.12502
rthumb 10.4512 -29.2375
lclavicle 9.44227e-015 -1.59028e-014
lhumerus -26.6157 -8.22067 90.1562
lradius 26.9388
lwrist -2.36915
lhand -23.7955 13.8815
lfingers 7.12502
lthumb 2.67486 43.8445
rfemur -8.67919 15.4703 23.9698
rtibia 27.8983
rfoot -35.9864 -32.7566
rtoes -4.94617
lfemur -6.02398 -18.1286 -24.9794
ltibia 29.803
lfoot -33.6888 28.6091
ltoes 17.2929
39
root 22.2503 15.3436 1.2398 157.905 -82.8936 -159.848
lowerback 7.58783 1.79664 -3.27344
upperback 1.85254 2.06286 -0.578499
thorax -2.43112 1.01847 1.04278
lowerneck -11.9538 -2.96119 2.66685
upperneck 16.3649 -4.7567 0.31288
head 6.91829 -2.14919 -0.788969
rclavicle 5.26779e-015 -1.66979e-014
rhumerus -33.4608 12.2299 -94.8845
rradius 34.8005
rwrist -17.812
rhand -15.6359 0.942418
rfingers 7.12502
rthumb 10.5514 -28.7727
lclavicle 5.26779e-015 -1.66979e-014
lhumerus -26.4269 -8.52023 90.078
lradius 26.8535
lwrist -2.35158
lhand -23.8963 13.2045
lfingers 7.12502
lthumb 2.57753 43.1687
rfemur -8.63806 15.528 23.9734
rtibia 27.9468
rfoot -35.9171 -32.7074
rtoes -4.91
lfemur -5.91355 -18.1972 -25.0213
ltibia 29.7501
lfoot -33.9617 28.5029
ltoes 17.9777
40
root 22.2583 15.3433 1.23678 156.779 -83.0687 -158.621
lowerback 7.60649 1.78865 -3.16021
upperback 1.85014 2.05941 -0.608115
thorax -2.43883 1.01628 0.948656
lowerneck -11.7305 -2.32039 3.19185
upperneck 16.0671 -3.92462 0.109743
head 6.77955 -1.73934 -0.855614
rclavicle -1.64991e-014 1.35174e-014
rhumerus -33.3219 11.8499 -94.7836
rradius 34.7789
rwrist -17.7813
rhand -15.7345 0.99349
rfingers 7.12502
rthumb 10.4562 -28.7265
lclavicle -1.64991e-014 1.35174e-014
lhumerus -26.2436 -8.93245 89.9954
lradius 26.7836
lwrist -2.08384
lhand -23.8802 13.0441
lfingers 7.12502
lthumb 2.59308 43.0081
rfemur -8.77668 15.5479 24.0454
rtibia 27.9807
rfoot -36.1394 -32.8394
rtoes -4.69155
lfemur -6.07806 -18.011 -24.8427
ltibia 29.7161
lfoot -33.395 28.5169
ltoes 16.2698
41
root 22.2511 15.3399 1.23875 157.824 -82.9523 -159.696
lowerback 7.48694 1.89891 -3.16919
upperback 1.9289 2.20823 -0.662742
thorax -2.29529 1.08691 0.888043
lowerneck -11.6465 -1.69953 3.73872
upperneck 15.9738 -3.1217 -0.178731
head 6.73499 -1.34572 -0.962956
rclavicle 2.03754e-014 8.74653e-015
rhumerus -33.203 11.5321 -94.6284
rradius 34.8283
rwrist -17.834
rhand -15.6068 0.696744
rfingers 7.12502
rthumb 10.5794 -29.017
lclavicle 2.03754e-014 8.74653e-015
lhumerus -26.1597 -9.00231 89.9082
lradius 26.7898
lwrist -1.94776
lhand -23.7687 13.1627
lfingers 7.12502
lthumb 2.70074 43.1253
rfemur -8.76983 15.4851 23.9502
rtibia 28.0176
rfoot -35.8817 -32.7612
rtoes -4.97718
lfemur -5.97523 -17.8937 -24.9798
ltibia 29.7072
lfoot -33.5133 28.6148
ltoes 16.1709
42
root 22.2576 15.34 1.23814 156.827 -83.1941 -158.606
lowerback 7.49655 1.83212 -3.13931
upperback 1.96248 2.12301 -0.621376
thorax -2.26304 1.04362 0.922588
lowerneck -11.5857 -1.07602 4.04467
upperneck 15.7693 -2.30029 -0.27352
head 6.6716 -0.941234 -0.967121
rclavicle -3.50855e-014 8.74653e-015
rhumerus -33.1197 11.374 -94.4052
rradius 34.9713
rwrist -17.8164
rhand -15.3328 0.15253
rfingers 7.12502
rthumb 10.8438 -29.5475
lclavicle -3.50855e-014 8.74653e-015
lhumerus -26.0615 -8.90708 89.8578
lradius 26.7744
lwrist -1.94098
lhand -23.8959 12.7107
lfingers 7.12502
lthumb 2.57789 42.6749
rfemur -8.86504 15.3885 23.9522
rtibia 28.0092
rfoot -36.0555 -32.7855
rtoes -4.65098
lfemur -6.12837 -18.0373 -24.9077
ltibia 29.7271
lfoot -33.372 28.5375
ltoes 15.5367
43
root 22.2634 15.3397 1.23767 154.961 -83.2842 -156.711
lowerback 7.58682 1.79648 -2.96344
upperback 2.00404 2.08754 -0.558159
thorax -2.26504 1.02475 0.890843
lowerneck -11.4904 -0.51592 4.36089
upperneck 15.5626 -1.5627 -0.391227
head 6.60267 -0.578591 -0.988384
rclavicle -9.0447e-015 2.8625e-014
rhumerus -33.1551 11.1769 -94.2184
rradius 35.082
rwrist -17.6438
rhand -15.1623 0.00405096
rfingers 7.12502
rthumb 11.0082 -29.6873
lclavicle -9.0447e-015 2.8625e-014
lhumerus -25.9121 -8.908 89.7859
lradius 26.6955
lwrist -1.91264
lhand -24.0085 12.8081
lfingers 7.12502
lthumb 2.46918 42.7736
rfemur -8.87611 15.3994 24.1356
rtibia 27.9833
rfoot -36.3129 -32.8403
rtoes -4.44224
lfemur -6.18481 -18.188 -24.7215
ltibia 29.7572
lfoot -33.3446 28.4592
ltoes 15.0643
44
root 22.2595 15.3411 1.23992 154.608 -83.1358 -156.316
lowerback 7.50544 1.86927 -2.81762
upperback 2.05425 2.19909 -0.548214
thorax -2.16729 1.07808 0.812268
lowerneck -11.3987 -0.0313962 4.87676
upperneck 15.4297 -0.926161 -0.750444
head 6.55628 -0.272327 -1.13018
rclavicle 2.54444e-014 -2.38542e-014
rhumerus -33.194 10.9215 -94.0649
rradius 35.0811
rwrist -17.476
rhand -15.1455 0.208787
rfingers 7.12502
rthumb 11.0245 -29.4817
lclavicle 2.54444e-014 -2.38542e-014
lhumerus -25.8047 -8.85157 89.6785
lradius 26.6694
lwrist -1.90991
lhand -23.8229 13.5849
lfingers 7.12502
lthumb 2.6484 43.5482
rfemur -8.8805 15.4457 24.2338
rtibia 27.9232
rfoot -36.2717 -32.7821
rtoes -4.38821
lfemur -6.19574 -18.3089 -24.6402
ltibia 29.7944
lfoot -33.6874 28.4683
ltoes 15.6449
45
root 22.2631 15.3417 1.23939 154.267 -83.1929 -155.983
lowerback 7.60732 1.91198 -2.8001
upperback 2.08976 2.25229 -0.553209
thorax -2.18823 1.10364 0.789636
lowerneck -11.3 0.420454 5.41152
upperneck 15.2774 -0.33228 -1.13528
head 6.5068 0.0124547 -1.28737
rclavicle -6.4605e-015 -1.59028e-014
rhumerus -33.1972 10.6731 -93.8902
rradius 35.046
rwrist -17.4022
rhand -15.1387 0.276645
rfingers 7.12502
rthumb 11.0309 -29.4135
lclavicle -6.4605e-015 -1.59028e-014
lhumerus -25.9082 -8.84042 89.6259
lradius 26.8276
lwrist -1.92449
lhand -23.7194 13.6013
lfingers 7.12502
lthumb 2.74839 43.5634
rfemur -8.83561 15.4977 24.2601
rtibia 27.8515
rfoot -36.3448 -32.846
rtoes -4.19089
lfemur -6.23481 -18.3222 -24.6115
ltibia 29.8339
lfoot -33.6745 28.4095
ltoes 15.8449
46
root 22.2606 15.3431 1.24044 154.64 -83.1624 -156.309
lowerback 7.58661 2.00527 -2.73849
upperback 2.09112 2.37933 -0.62278
thorax -2.17441 1.16631 0.671997
lowerneck -11.0992 0.877245 5.88471
upperneck 14.9961 0.257209 -1.33869
head 6.40433 0.305139 -1.37628
rclavicle 3.02153e-014 5.56597e-015
rhumerus -33.2377 10.411 -93.7984
rradius 34.911
rwrist -17.2728
rhand -15.1561 0.320256
rfingers 7.12502
rthumb 11.0142 -29.3708
lclavicle 3.02153e-014 5.56597e-015
lhumerus -26.129 -9.09276 89.5805
lradius 27.0223
lwrist -1.76387
lhand -23.7009 13.3206
lfingers 7.12502
lthumb 2.76623 43.2824
rfemur -8.86544 15.6054 24.2244
rtibia 27.7973
rfoot -36.2619 -33.0386
rtoes -4.76781
lfemur -6.28223 -18.3474 -24.6343
ltibia 29.8429
lfoot -33.6758 28.4425
ltoes 15.9546
47
root 22.2612 15.3458 1.24029 154.787 -83.2198 -156.416
lowerback 7.62647 2.03933 -2.7439
upperback 2.09203 2.42101 -0.660906
thorax -2.19554 1.18694 0.630356
lowerneck -10.9313 1.22026 6.23303
upperneck 14.9015 0.712727 -1.57024
head 6.36499 0.52547 -1.46736
rclavicle -1.71949e-014 3.18055e-015
rhumerus -33.293 10.4034 -93.8106
rradius 34.6809
rwrist -17.4736
rhand -15.6662 0.830834
rfingers 7.12502
rthumb 10.5221 -28.8858
lclavicle -1.71949e-014 3.18055e-015
lhumerus -26.2484 -9.22405 89.5168
lradius 27.1045
lwrist -1.57828
lhand -23.6484 13.3496
lfingers 7.12502
lthumb 2.81694 43.3107
rfemur -8.88722 15.6703 24.1868
rtibia 27.7745
rfoot -36.3684 -33.1349
rtoes -4.87425
lfemur -6.32905 -18.4893 -24.6631
ltibia 29.829
lfoot -33.6414 28.6034
ltoes 16.17
